<svg id="SvgjsSvg1148" width="288" height="288" xmlns="http://www.w3.org/2000/svg" version="1.1" xmlns:xlink="http://www.w3.org/1999/xlink" xmlns:svgjs="http://svgjs.com/svgjs"><defs id="SvgjsDefs1149"></defs><g id="SvgjsG1150"><svg xmlns="http://www.w3.org/2000/svg" viewBox="0 0 32 32" width="288" height="288"><path fill="#ffffff" d="M26.5 22.5h-21c-.8 0-1.5-.7-1.5-1.5V7c0-.8.7-1.5 1.5-1.5h21c.8 0 1.5.7 1.5 1.5v14c0 .8-.7 1.5-1.5 1.5zm-21-16c-.3 0-.5.2-.5.5v14c0 .3.2.5.5.5h21c.3 0 .5-.2.5-.5V7c0-.3-.2-.5-.5-.5h-21zM22.5 26.5h-13c-.3 0-.5-.2-.5-.5s.2-.5.5-.5h13c.3 0 .5.2.5.5s-.2.5-.5.5z" class="color4f5266 svgShape"></path><path fill="#ffffff" d="M27.5 19.5h-23c-.3 0-.5-.2-.5-.5s.2-.5.5-.5h23c.3 0 .5.2.5.5s-.2.5-.5.5zM25.5 8.5h-7c-.3 0-.5-.2-.5-.5s.2-.5.5-.5h7c.3 0 .5.2.5.5s-.2.5-.5.5zM25.5 10.5h-7c-.3 0-.5-.2-.5-.5s.2-.5.5-.5h7c.3 0 .5.2.5.5s-.2.5-.5.5zM18.5 26.5h-5c-.3 0-.5-.2-.5-.5v-4c0-.3.2-.5.5-.5h5c.3 0 .5.2.5.5v4c0 .3-.2.5-.5.5zm-4.5-1h4v-3h-4v3zM10.5 17.5c-2.2 0-4-1.8-4-4v-1c0-.3.2-.5.5-.5s.5.2.5.5v1c0 1.7 1.3 3 3 3s3-1.3 3-3v-1c0-.3.2-.5.5-.5s.5.2.5.5v1c0 2.2-1.8 4-4 4z" class="color4f5266 svgShape"></path><path fill="#ffffff" d="M7 13.2h-.2c-.2-.1-.3-.2-.3-.4L6 10.5c-.1-.6 0-1.1.3-1.6s.8-.8 1.3-.8l3.7-.6c.7-.1 1.3 0 1.7.4.4.3.6.7.7 1.1.4.1.7.3.9.6.3.4.5 1 .4 1.5l-.5 1.7c0 .2-.2.3-.3.3-.2 0-.3 0-.5-.1l-1.3-1c-.1-.1-.2-.1-.3-.1H8.9c-.1 0-.2 0-.3.1l-1.3 1c-.1.2-.2.2-.3.2zM8.9 11h3.2c.3 0 .7.1.9.3l.7.6.3-1c0-.2 0-.4-.2-.6s-.3-.3-.6-.3-.5-.2-.5-.5-.1-.6-.4-.8c-.2-.2-.5-.3-.8-.2l-3.6.6c-.3 0-.5.2-.7.4-.2.2-.2.5-.2.8l.3 1.6.7-.6c.3-.2.6-.3.9-.3z" class="color4f5266 svgShape"></path><path fill="#ffffff" d="M12.5 15.6H11c-.3 0-.5-.2-.5-.5s.2-.5.5-.5h1.5c.6 0 1-.4 1-1v-1c0-.3.2-.5.5-.5s.5.2.5.5v1c0 1.1-.9 2-2 2z" class="color4f5266 svgShape"></path><circle cx="16.5" cy="8" r=".5" fill="#ffffff" class="color4f5266 svgShape"></circle><circle cx="16.5" cy="10" r=".5" fill="#ffffff" class="color4f5266 svgShape"></circle><path fill="#ffffff" d="M25.5 12.5h-7c-.3 0-.5-.2-.5-.5s.2-.5.5-.5h7c.3 0 .5.2.5.5s-.2.5-.5.5z" class="color4f5266 svgShape"></path><circle cx="16.5" cy="12" r=".5" fill="#ffffff" class="color4f5266 svgShape"></circle><path fill="#ffffff" d="M24.5 17.5h-7c-.8 0-1.5-.7-1.5-1.5v-1c0-.8.7-1.5 1.5-1.5h7c.8 0 1.5.7 1.5 1.5v1c0 .8-.7 1.5-1.5 1.5zm-7-3c-.3 0-.5.2-.5.5v1c0 .3.2.5.5.5h7c.3 0 .5-.2.5-.5v-1c0-.3-.2-.5-.5-.5h-7z" class="color4f5266 svgShape"></path></svg></g></svg>